<svg xmlns="http://www.w3.org/2000/svg" xmlns:xlink="http://www.w3.org/1999/xlink" width="35" height="32" viewBox="0 0 35 32"><defs><path id="w8xva" d="M1996.817 4637.777l-.887-.853c-.113.02-.216.064-.336.064-.972 0-1.761-.759-1.761-1.696 0-.115.044-.216.068-.324l-.886-.853H1975.1l-.886.853c.023.11.068.209.068.324 0 .937-.788 1.696-1.76 1.696-.12 0-.225-.041-.337-.064l-.885.852v5.49l.886.852c.112-.02.216-.064.335-.064.973 0 1.762.76 1.762 1.696 0 .115-.045.215-.068.324l.885.853h17.915l.887-.854c-.023-.108-.068-.208-.068-.323 0-.936.788-1.697 1.76-1.697.12 0 .224.042.337.065l.886-.852zm-27.689 11.242v-16.995h29.86v16.995zm23.752-10.194c.973 0 1.762.76 1.762 1.696 0 .938-.79 1.697-1.762 1.697-.973 0-1.761-.76-1.761-1.697s.788-1.696 1.761-1.696zm-8.822-2.768c2.942 0 5.328 1.999 5.328 4.464 0 2.465-2.386 4.463-5.328 4.463-2.943 0-5.328-1.998-5.328-4.463s2.385-4.464 5.328-4.464zm-8.822 2.769c.972 0 1.76.758 1.76 1.695 0 .938-.788 1.695-1.76 1.695s-1.76-.757-1.76-1.695c0-.937.788-1.695 1.76-1.695zm13.847-13.233c.971 0 1.76.76 1.76 1.696 0 .936-.789 1.695-1.76 1.695-.972 0-1.762-.759-1.762-1.695s.79-1.696 1.762-1.696zm-21.991 10.651l-3.082-5.42 7.143-3.767 11.905-6.279h-.002l7.144-3.767 3.915 6.879 3.509 6.174h-5.2c.14-.38.404-.722.802-.931.105-.055.219-.068.326-.1l.351-1.157-2.738-4.814-1.204-.34c-.084.072-.156.158-.258.212-.858.45-1.925.15-2.393-.672-.058-.102-.071-.211-.106-.316l-1.2-.337-15.713 8.287-.05.166h-1.113c-1.124 0-2.036.88-2.036 1.962zm18.925-7.338c.21.367.328.758.407 1.156h-9.818c.478-1.04 1.329-1.984 2.511-2.606 2.582-1.36 5.67-.712 6.9 1.45z"/></defs><g><g transform="translate(-1964 -4617)"><use xlink:href="#w8xva"/><use fill="#353535" xlink:href="#w8xva"/></g></g></svg>